<svg width="27.288in" height="9.746in" viewBox="0 0 27.288 9.746" xmlns="http://www.w3.org/2000/svg" version="1.1" preserveAspectRatio="xMidYMid meet"><g id="svgGroup" stroke-linecap="round" fill-rule="evenodd" font-size="9pt" stroke="#000" stroke-width="0.25mm" fill="none" style="stroke:#000;stroke-width:0.25mm;fill:none"><path d="M 0.548 9.628 L 0.898 9.628 L 0.898 9.746 L 1.268 9.746 L 1.268 9.628 L 1.618 9.628 L 1.618 9.746 L 1.988 9.746 L 1.988 9.628 L 2.338 9.628 L 2.338 9.746 L 2.708 9.746 L 2.708 9.628 L 3.058 9.628 L 3.058 9.746 L 3.428 9.746 L 3.428 9.628 L 3.778 9.628 L 3.778 9.746 L 4.148 9.746 L 4.148 9.628 L 4.498 9.628 L 4.498 9.746 L 4.868 9.746 L 4.868 9.628 L 5.218 9.628 L 5.218 9.746 L 5.588 9.746 L 5.588 9.628 L 5.938 9.628 L 5.938 9.746 L 6.308 9.746 L 6.308 9.628 L 6.658 9.628 L 6.658 9.746 L 7.028 9.746 L 7.028 9.628 L 7.378 9.628 L 7.378 9.746 L 7.748 9.746 L 7.748 9.628 L 8.098 9.628 L 8.098 9.746 L 8.646 9.746 L 8.646 9.482 L 8.528 9.482 L 8.528 9.132 L 8.646 9.132 L 8.646 8.868 L 0 8.868 L 0 9.132 L 0.118 9.132 L 0.118 9.482 L 0 9.482 L 0 9.746 L 0.548 9.746 L 0.548 9.628 Z" id="front_outsideCutPath" stroke="#FF0000" stroke-width=".001" style="stroke:#FF0000;stroke-width:.001" vector-effect="non-scaling-stroke"/><path d="M 4.451 9.373 L 4.437 9.373 L 4.437 9.313 Q 4.437 9.305 4.435 9.3 A 0.017 0.017 0 0 0 4.432 9.295 A 0.016 0.016 0 0 0 4.425 9.291 Q 4.422 9.29 4.419 9.29 A 0.038 0.038 0 0 0 4.415 9.29 A 0.043 0.043 0 0 0 4.407 9.29 Q 4.398 9.292 4.394 9.298 A 0.023 0.023 0 0 0 4.389 9.305 Q 4.387 9.311 4.387 9.321 A 0.091 0.091 0 0 0 4.387 9.324 L 4.387 9.373 L 4.372 9.373 L 4.372 9.279 L 4.384 9.279 L 4.386 9.292 A 0.029 0.029 0 0 1 4.398 9.282 A 0.035 0.035 0 0 1 4.399 9.281 A 0.039 0.039 0 0 1 4.413 9.278 A 0.047 0.047 0 0 1 4.417 9.278 A 0.056 0.056 0 0 1 4.426 9.278 Q 4.436 9.28 4.442 9.286 A 0.025 0.025 0 0 1 4.448 9.295 Q 4.45 9.299 4.45 9.304 A 0.062 0.062 0 0 1 4.451 9.312 L 4.451 9.373 Z M 4.178 9.279 L 4.178 9.29 L 4.154 9.29 L 4.154 9.373 L 4.139 9.373 L 4.139 9.29 L 4.123 9.29 L 4.123 9.284 L 4.139 9.279 L 4.139 9.274 A 0.058 0.058 0 0 1 4.141 9.261 Q 4.145 9.243 4.162 9.24 A 0.043 0.043 0 0 1 4.17 9.239 A 0.046 0.046 0 0 1 4.176 9.239 Q 4.181 9.24 4.187 9.242 L 4.183 9.253 A 0.069 0.069 0 0 0 4.178 9.252 Q 4.175 9.251 4.173 9.251 A 0.031 0.031 0 0 0 4.169 9.251 A 0.019 0.019 0 0 0 4.165 9.251 A 0.012 0.012 0 0 0 4.157 9.256 Q 4.154 9.261 4.154 9.271 A 0.067 0.067 0 0 0 4.154 9.273 L 4.154 9.279 L 4.178 9.279 Z M 4.523 9.362 L 4.523 9.372 A 0.04 0.04 0 0 1 4.517 9.374 A 0.062 0.062 0 0 1 4.513 9.375 A 0.044 0.044 0 0 1 4.509 9.375 Q 4.487 9.375 4.482 9.357 A 0.045 0.045 0 0 1 4.481 9.346 L 4.481 9.29 L 4.468 9.29 L 4.468 9.284 L 4.481 9.278 L 4.487 9.258 L 4.495 9.258 L 4.495 9.279 L 4.523 9.279 L 4.523 9.29 L 4.495 9.29 L 4.495 9.346 Q 4.495 9.352 4.497 9.356 A 0.014 0.014 0 0 0 4.5 9.359 A 0.013 0.013 0 0 0 4.508 9.363 A 0.019 0.019 0 0 0 4.511 9.363 A 0.047 0.047 0 0 0 4.517 9.363 A 0.076 0.076 0 0 0 4.52 9.362 A 0.05 0.05 0 0 0 4.522 9.362 A 0.03 0.03 0 0 0 4.523 9.362 Z M 4.249 9.279 L 4.247 9.292 A 0.063 0.063 0 0 0 4.242 9.291 A 0.044 0.044 0 0 0 4.238 9.291 A 0.034 0.034 0 0 0 4.237 9.291 Q 4.225 9.291 4.217 9.3 A 0.033 0.033 0 0 0 4.209 9.318 A 0.043 0.043 0 0 0 4.209 9.323 L 4.209 9.373 L 4.195 9.373 L 4.195 9.279 L 4.206 9.279 L 4.208 9.297 A 0.048 0.048 0 0 1 4.214 9.289 A 0.037 0.037 0 0 1 4.221 9.283 A 0.028 0.028 0 0 1 4.238 9.278 A 0.065 0.065 0 0 1 4.243 9.278 A 0.048 0.048 0 0 1 4.249 9.279 Z M 4.347 9.326 Q 4.347 9.349 4.336 9.362 A 0.038 0.038 0 0 1 4.314 9.374 A 0.055 0.055 0 0 1 4.304 9.375 A 0.046 0.046 0 0 1 4.291 9.373 A 0.04 0.04 0 0 1 4.282 9.369 A 0.039 0.039 0 0 1 4.267 9.354 A 0.047 0.047 0 0 1 4.266 9.352 A 0.053 0.053 0 0 1 4.262 9.338 A 0.071 0.071 0 0 1 4.261 9.326 Q 4.261 9.309 4.268 9.297 A 0.039 0.039 0 0 1 4.273 9.29 A 0.038 0.038 0 0 1 4.295 9.278 A 0.055 0.055 0 0 1 4.305 9.278 A 0.048 0.048 0 0 1 4.319 9.28 A 0.037 0.037 0 0 1 4.336 9.291 Q 4.347 9.304 4.347 9.326 Z M 4.276 9.326 A 0.072 0.072 0 0 0 4.277 9.337 Q 4.277 9.342 4.279 9.346 A 0.03 0.03 0 0 0 4.283 9.354 A 0.023 0.023 0 0 0 4.298 9.363 A 0.035 0.035 0 0 0 4.304 9.363 A 0.033 0.033 0 0 0 4.313 9.362 A 0.023 0.023 0 0 0 4.325 9.354 Q 4.331 9.347 4.332 9.335 A 0.075 0.075 0 0 0 4.333 9.326 Q 4.333 9.308 4.325 9.299 A 0.023 0.023 0 0 0 4.311 9.29 A 0.036 0.036 0 0 0 4.304 9.29 A 0.034 0.034 0 0 0 4.296 9.291 A 0.023 0.023 0 0 0 4.283 9.299 A 0.029 0.029 0 0 0 4.278 9.308 Q 4.276 9.315 4.276 9.326 Z M 4.523 9.372 Q 4.522 9.373 4.52 9.374" id="front_labelLayer" stroke="#777777" fill="#777777" style="stroke:#777777;fill:#777777" vector-effect="non-scaling-stroke"/><path d="M 9.509 9.628 L 9.859 9.628 L 9.859 9.746 L 10.229 9.746 L 10.229 9.628 L 10.579 9.628 L 10.579 9.746 L 10.949 9.746 L 10.949 9.628 L 11.299 9.628 L 11.299 9.746 L 11.669 9.746 L 11.669 9.628 L 12.019 9.628 L 12.019 9.746 L 12.389 9.746 L 12.389 9.628 L 12.739 9.628 L 12.739 9.746 L 13.109 9.746 L 13.109 9.628 L 13.459 9.628 L 13.459 9.746 L 13.829 9.746 L 13.829 9.628 L 14.179 9.628 L 14.179 9.746 L 14.549 9.746 L 14.549 9.628 L 14.899 9.628 L 14.899 9.746 L 15.269 9.746 L 15.269 9.628 L 15.619 9.628 L 15.619 9.746 L 15.989 9.746 L 15.989 9.628 L 16.339 9.628 L 16.339 9.746 L 16.709 9.746 L 16.709 9.628 L 17.059 9.628 L 17.059 9.746 L 17.429 9.746 L 17.429 9.628 L 17.779 9.628 L 17.779 9.746 L 18.399 9.746 L 18.399 9.492 L 18.517 9.492 L 18.517 9.122 L 18.399 9.122 L 18.399 8.868 L 8.889 8.868 L 8.889 9.122 L 8.771 9.122 L 8.771 9.492 L 8.889 9.492 L 8.889 9.746 L 9.509 9.746 L 9.509 9.628 Z" id="left_outsideCutPath" stroke="#FF0000" stroke-width=".001" style="stroke:#FF0000;stroke-width:.001" vector-effect="non-scaling-stroke"/><path d="M 13.706 9.279 L 13.706 9.29 L 13.683 9.29 L 13.683 9.373 L 13.668 9.373 L 13.668 9.29 L 13.652 9.29 L 13.652 9.284 L 13.668 9.279 L 13.668 9.274 A 0.058 0.058 0 0 1 13.67 9.261 Q 13.674 9.243 13.691 9.24 A 0.043 0.043 0 0 1 13.699 9.239 A 0.046 0.046 0 0 1 13.705 9.239 Q 13.71 9.24 13.716 9.242 L 13.712 9.253 A 0.069 0.069 0 0 0 13.707 9.252 Q 13.704 9.251 13.702 9.251 A 0.031 0.031 0 0 0 13.698 9.251 A 0.019 0.019 0 0 0 13.694 9.251 A 0.012 0.012 0 0 0 13.686 9.256 Q 13.683 9.261 13.683 9.271 A 0.067 0.067 0 0 0 13.683 9.273 L 13.683 9.279 L 13.706 9.279 Z M 13.64 9.32 L 13.64 9.329 L 13.575 9.329 A 0.057 0.057 0 0 0 13.576 9.338 Q 13.578 9.348 13.583 9.354 A 0.026 0.026 0 0 0 13.597 9.362 A 0.039 0.039 0 0 0 13.606 9.363 A 0.075 0.075 0 0 0 13.634 9.357 A 0.086 0.086 0 0 0 13.636 9.356 L 13.636 9.369 A 0.086 0.086 0 0 1 13.628 9.372 A 0.065 0.065 0 0 1 13.622 9.374 Q 13.616 9.375 13.609 9.375 A 0.116 0.116 0 0 1 13.605 9.375 A 0.055 0.055 0 0 1 13.591 9.373 A 0.039 0.039 0 0 1 13.572 9.362 Q 13.561 9.35 13.56 9.33 A 0.081 0.081 0 0 1 13.56 9.327 Q 13.56 9.309 13.568 9.296 A 0.042 0.042 0 0 1 13.572 9.291 A 0.036 0.036 0 0 1 13.598 9.278 A 0.05 0.05 0 0 1 13.602 9.278 A 0.043 0.043 0 0 1 13.614 9.279 A 0.033 0.033 0 0 1 13.63 9.289 A 0.04 0.04 0 0 1 13.639 9.307 A 0.058 0.058 0 0 1 13.64 9.32 Z M 13.767 9.362 L 13.767 9.372 A 0.04 0.04 0 0 1 13.761 9.374 A 0.062 0.062 0 0 1 13.756 9.375 A 0.044 0.044 0 0 1 13.752 9.375 Q 13.73 9.375 13.726 9.357 A 0.045 0.045 0 0 1 13.725 9.346 L 13.725 9.29 L 13.711 9.29 L 13.711 9.284 L 13.725 9.278 L 13.731 9.258 L 13.739 9.258 L 13.739 9.279 L 13.766 9.279 L 13.766 9.29 L 13.739 9.29 L 13.739 9.346 Q 13.739 9.352 13.741 9.356 A 0.014 0.014 0 0 0 13.743 9.359 A 0.013 0.013 0 0 0 13.751 9.363 A 0.019 0.019 0 0 0 13.754 9.363 A 0.047 0.047 0 0 0 13.761 9.363 A 0.076 0.076 0 0 0 13.763 9.362 A 0.05 0.05 0 0 0 13.765 9.362 A 0.03 0.03 0 0 0 13.767 9.362 Z M 13.535 9.24 L 13.535 9.373 L 13.521 9.373 L 13.521 9.24 L 13.535 9.24 Z M 13.575 9.317 L 13.625 9.317 A 0.049 0.049 0 0 0 13.624 9.31 Q 13.623 9.305 13.622 9.302 A 0.022 0.022 0 0 0 13.619 9.297 A 0.019 0.019 0 0 0 13.607 9.29 A 0.029 0.029 0 0 0 13.601 9.29 A 0.028 0.028 0 0 0 13.593 9.291 A 0.022 0.022 0 0 0 13.583 9.297 A 0.028 0.028 0 0 0 13.578 9.306 Q 13.576 9.31 13.576 9.315 A 0.054 0.054 0 0 0 13.575 9.317 Z M 13.767 9.372 Q 13.765 9.373 13.763 9.374" id="left_labelLayer" stroke="#777777" fill="#777777" style="stroke:#777777;fill:#777777" vector-effect="non-scaling-stroke"/><path d="M 0.548 8.625 L 0.898 8.625 L 0.898 8.743 L 1.268 8.743 L 1.268 8.625 L 1.618 8.625 L 1.618 8.743 L 1.988 8.743 L 1.988 8.625 L 2.338 8.625 L 2.338 8.743 L 2.708 8.743 L 2.708 8.625 L 3.058 8.625 L 3.058 8.743 L 3.428 8.743 L 3.428 8.625 L 3.778 8.625 L 3.778 8.743 L 4.148 8.743 L 4.148 8.625 L 4.498 8.625 L 4.498 8.743 L 4.868 8.743 L 4.868 8.625 L 5.218 8.625 L 5.218 8.743 L 5.588 8.743 L 5.588 8.625 L 5.938 8.625 L 5.938 8.743 L 6.308 8.743 L 6.308 8.625 L 6.658 8.625 L 6.658 8.743 L 7.028 8.743 L 7.028 8.625 L 7.378 8.625 L 7.378 8.743 L 7.748 8.743 L 7.748 8.625 L 8.098 8.625 L 8.098 8.743 L 8.646 8.743 L 8.646 8.479 L 8.528 8.479 L 8.528 8.129 L 8.646 8.129 L 8.646 7.865 L 0 7.865 L 0 8.129 L 0.118 8.129 L 0.118 8.479 L 0 8.479 L 0 8.743 L 0.548 8.743 L 0.548 8.625 Z" id="back_outsideCutPath" stroke="#FF0000" stroke-width=".001" style="stroke:#FF0000;stroke-width:.001" vector-effect="non-scaling-stroke"/><path d="M 4.455 8.308 L 4.485 8.276 L 4.502 8.276 L 4.464 8.316 L 4.505 8.37 L 4.488 8.37 L 4.455 8.325 L 4.444 8.335 L 4.444 8.37 L 4.43 8.37 L 4.43 8.236 L 4.444 8.236 L 4.444 8.307 A 0.095 0.095 0 0 1 4.444 8.31 Q 4.444 8.313 4.444 8.316 A 0.461 0.461 0 0 1 4.443 8.321 A 0.084 0.084 0 0 1 4.446 8.319 Q 4.449 8.315 4.453 8.311 A 0.32 0.32 0 0 1 4.455 8.308 Z M 4.155 8.358 L 4.154 8.358 L 4.151 8.37 L 4.141 8.37 L 4.141 8.236 L 4.155 8.236 L 4.155 8.269 A 0.296 0.296 0 0 1 4.155 8.279 A 0.214 0.214 0 0 1 4.155 8.288 A 0.032 0.032 0 0 1 4.179 8.275 A 0.049 0.049 0 0 1 4.185 8.274 A 0.044 0.044 0 0 1 4.197 8.276 A 0.033 0.033 0 0 1 4.213 8.287 A 0.042 0.042 0 0 1 4.221 8.301 Q 4.224 8.31 4.224 8.323 Q 4.224 8.339 4.219 8.35 A 0.04 0.04 0 0 1 4.213 8.359 A 0.034 0.034 0 0 1 4.189 8.371 A 0.048 0.048 0 0 1 4.185 8.372 A 0.043 0.043 0 0 1 4.174 8.37 A 0.038 0.038 0 0 1 4.168 8.368 Q 4.16 8.365 4.155 8.358 Z M 4.317 8.37 L 4.306 8.37 L 4.304 8.356 Q 4.296 8.365 4.289 8.368 Q 4.283 8.371 4.275 8.371 A 0.064 0.064 0 0 1 4.271 8.372 Q 4.26 8.372 4.253 8.367 A 0.025 0.025 0 0 1 4.249 8.364 Q 4.242 8.357 4.242 8.344 Q 4.242 8.316 4.284 8.314 A 0.14 0.14 0 0 1 4.287 8.314 L 4.303 8.314 L 4.303 8.308 Q 4.303 8.297 4.298 8.291 A 0.014 0.014 0 0 0 4.292 8.287 Q 4.29 8.287 4.287 8.286 A 0.035 0.035 0 0 0 4.283 8.286 A 0.046 0.046 0 0 0 4.272 8.287 Q 4.265 8.289 4.256 8.293 L 4.252 8.282 A 0.066 0.066 0 0 1 4.265 8.277 A 0.074 0.074 0 0 1 4.267 8.276 A 0.066 0.066 0 0 1 4.284 8.274 A 0.06 0.06 0 0 1 4.293 8.275 Q 4.303 8.277 4.309 8.282 A 0.023 0.023 0 0 1 4.315 8.291 Q 4.317 8.297 4.317 8.306 L 4.317 8.37 Z M 4.409 8.279 L 4.405 8.291 A 0.063 0.063 0 0 0 4.398 8.289 A 0.076 0.076 0 0 0 4.394 8.288 A 0.059 0.059 0 0 0 4.39 8.287 A 0.041 0.041 0 0 0 4.386 8.287 Q 4.359 8.287 4.356 8.316 A 0.079 0.079 0 0 0 4.356 8.323 Q 4.356 8.341 4.363 8.35 A 0.023 0.023 0 0 0 4.377 8.359 A 0.034 0.034 0 0 0 4.383 8.359 A 0.06 0.06 0 0 0 4.4 8.357 A 0.074 0.074 0 0 0 4.408 8.354 L 4.408 8.367 Q 4.399 8.371 4.388 8.371 A 0.078 0.078 0 0 1 4.384 8.372 A 0.053 0.053 0 0 1 4.371 8.37 A 0.036 0.036 0 0 1 4.352 8.359 Q 4.343 8.348 4.341 8.33 A 0.086 0.086 0 0 1 4.341 8.323 A 0.079 0.079 0 0 1 4.342 8.309 Q 4.344 8.301 4.347 8.295 A 0.039 0.039 0 0 1 4.352 8.287 Q 4.364 8.274 4.385 8.274 Q 4.392 8.274 4.398 8.276 A 0.071 0.071 0 0 1 4.402 8.277 A 0.028 0.028 0 0 1 4.409 8.279 Z M 4.183 8.286 A 0.04 0.04 0 0 0 4.175 8.287 Q 4.166 8.289 4.162 8.295 Q 4.156 8.302 4.155 8.318 A 0.11 0.11 0 0 0 4.155 8.323 Q 4.155 8.34 4.16 8.348 A 0.021 0.021 0 0 0 4.162 8.351 A 0.021 0.021 0 0 0 4.172 8.358 Q 4.177 8.36 4.183 8.36 A 0.028 0.028 0 0 0 4.191 8.359 A 0.02 0.02 0 0 0 4.203 8.35 A 0.033 0.033 0 0 0 4.207 8.341 Q 4.208 8.337 4.208 8.332 A 0.082 0.082 0 0 0 4.209 8.323 A 0.084 0.084 0 0 0 4.208 8.313 Q 4.207 8.302 4.203 8.295 A 0.021 0.021 0 0 0 4.189 8.287 A 0.033 0.033 0 0 0 4.183 8.286 Z M 4.303 8.332 L 4.303 8.324 L 4.288 8.324 A 0.104 0.104 0 0 0 4.28 8.325 Q 4.272 8.326 4.267 8.328 A 0.022 0.022 0 0 0 4.264 8.33 A 0.015 0.015 0 0 0 4.257 8.341 A 0.022 0.022 0 0 0 4.256 8.344 A 0.02 0.02 0 0 0 4.257 8.349 Q 4.258 8.353 4.261 8.356 Q 4.265 8.359 4.272 8.36 A 0.032 0.032 0 0 0 4.274 8.36 A 0.039 0.039 0 0 0 4.283 8.359 Q 4.289 8.358 4.293 8.354 A 0.024 0.024 0 0 0 4.295 8.353 Q 4.303 8.345 4.303 8.332 Z M 4.402 8.277 Q 4.404 8.277 4.406 8.278 M 4.386 8.287 Q 4.385 8.287 4.384 8.287" id="back_labelLayer" stroke="#777777" fill="#777777" style="stroke:#777777;fill:#777777" vector-effect="non-scaling-stroke"/><path d="M 9.509 8.625 L 9.859 8.625 L 9.859 8.743 L 10.229 8.743 L 10.229 8.625 L 10.579 8.625 L 10.579 8.743 L 10.949 8.743 L 10.949 8.625 L 11.299 8.625 L 11.299 8.743 L 11.669 8.743 L 11.669 8.625 L 12.019 8.625 L 12.019 8.743 L 12.389 8.743 L 12.389 8.625 L 12.739 8.625 L 12.739 8.743 L 13.109 8.743 L 13.109 8.625 L 13.459 8.625 L 13.459 8.743 L 13.829 8.743 L 13.829 8.625 L 14.179 8.625 L 14.179 8.743 L 14.549 8.743 L 14.549 8.625 L 14.899 8.625 L 14.899 8.743 L 15.269 8.743 L 15.269 8.625 L 15.619 8.625 L 15.619 8.743 L 15.989 8.743 L 15.989 8.625 L 16.339 8.625 L 16.339 8.743 L 16.709 8.743 L 16.709 8.625 L 17.059 8.625 L 17.059 8.743 L 17.429 8.743 L 17.429 8.625 L 17.779 8.625 L 17.779 8.743 L 18.399 8.743 L 18.399 8.489 L 18.517 8.489 L 18.517 8.119 L 18.399 8.119 L 18.399 7.865 L 8.889 7.865 L 8.889 8.119 L 8.771 8.119 L 8.771 8.489 L 8.889 8.489 L 8.889 8.743 L 9.509 8.743 L 9.509 8.625 Z" id="right_outsideCutPath" stroke="#FF0000" stroke-width=".001" style="stroke:#FF0000;stroke-width:.001" vector-effect="non-scaling-stroke"/><path d="M 13.753 8.35 L 13.739 8.35 L 13.739 8.289 Q 13.739 8.281 13.737 8.277 A 0.017 0.017 0 0 0 13.734 8.272 A 0.016 0.016 0 0 0 13.727 8.267 Q 13.725 8.267 13.721 8.266 A 0.038 0.038 0 0 0 13.717 8.266 Q 13.703 8.266 13.696 8.274 Q 13.689 8.281 13.689 8.297 A 0.092 0.092 0 0 0 13.689 8.3 L 13.689 8.35 L 13.675 8.35 L 13.675 8.216 L 13.689 8.216 L 13.689 8.257 Q 13.689 8.264 13.688 8.269 A 0.028 0.028 0 0 1 13.699 8.259 A 0.035 0.035 0 0 1 13.701 8.258 A 0.037 0.037 0 0 1 13.713 8.254 A 0.046 0.046 0 0 1 13.719 8.254 Q 13.73 8.254 13.738 8.258 A 0.026 0.026 0 0 1 13.745 8.262 Q 13.751 8.269 13.753 8.281 A 0.062 0.062 0 0 1 13.753 8.288 L 13.753 8.35 Z M 13.64 8.27 A 0.023 0.023 0 0 0 13.638 8.267 L 13.655 8.265 L 13.655 8.256 L 13.623 8.256 A 0.042 0.042 0 0 0 13.617 8.254 A 0.055 0.055 0 0 0 13.61 8.254 A 0.063 0.063 0 0 0 13.605 8.254 Q 13.6 8.254 13.595 8.256 A 0.03 0.03 0 0 0 13.583 8.262 A 0.027 0.027 0 0 0 13.575 8.276 A 0.041 0.041 0 0 0 13.574 8.286 A 0.036 0.036 0 0 0 13.574 8.288 A 0.029 0.029 0 0 0 13.579 8.303 A 0.031 0.031 0 0 0 13.58 8.304 A 0.025 0.025 0 0 0 13.591 8.313 A 0.045 0.045 0 0 0 13.588 8.315 Q 13.584 8.317 13.582 8.32 A 0.014 0.014 0 0 0 13.58 8.324 A 0.016 0.016 0 0 0 13.579 8.329 Q 13.579 8.334 13.582 8.337 A 0.015 0.015 0 0 0 13.588 8.342 A 0.035 0.035 0 0 0 13.581 8.345 A 0.025 0.025 0 0 0 13.572 8.351 A 0.022 0.022 0 0 0 13.567 8.366 Q 13.567 8.372 13.569 8.377 A 0.023 0.023 0 0 0 13.577 8.385 A 0.033 0.033 0 0 0 13.585 8.389 Q 13.593 8.392 13.605 8.392 Q 13.62 8.392 13.631 8.389 A 0.043 0.043 0 0 0 13.642 8.384 A 0.026 0.026 0 0 0 13.652 8.37 A 0.031 0.031 0 0 0 13.654 8.36 Q 13.654 8.348 13.646 8.341 A 0.026 0.026 0 0 0 13.64 8.338 Q 13.633 8.335 13.623 8.335 L 13.606 8.335 A 0.054 0.054 0 0 1 13.603 8.335 Q 13.6 8.334 13.597 8.334 A 0.01 0.01 0 0 1 13.595 8.333 A 0.006 0.006 0 0 1 13.592 8.33 A 0.007 0.007 0 0 1 13.592 8.327 A 0.011 0.011 0 0 1 13.593 8.321 Q 13.596 8.318 13.601 8.315 A 0.039 0.039 0 0 0 13.604 8.315 A 0.046 0.046 0 0 0 13.609 8.316 A 0.062 0.062 0 0 0 13.612 8.316 Q 13.626 8.315 13.635 8.308 A 0.026 0.026 0 0 0 13.643 8.296 A 0.033 0.033 0 0 0 13.644 8.285 A 0.035 0.035 0 0 0 13.644 8.281 A 0.027 0.027 0 0 0 13.642 8.275 A 0.044 0.044 0 0 0 13.642 8.273 Z M 13.826 8.338 L 13.826 8.349 A 0.04 0.04 0 0 1 13.82 8.35 A 0.062 0.062 0 0 1 13.815 8.351 A 0.044 0.044 0 0 1 13.811 8.351 Q 13.789 8.351 13.785 8.333 A 0.045 0.045 0 0 1 13.783 8.323 L 13.783 8.267 L 13.77 8.267 L 13.77 8.26 L 13.783 8.254 L 13.789 8.234 L 13.798 8.234 L 13.798 8.256 L 13.825 8.256 L 13.825 8.267 L 13.798 8.267 L 13.798 8.322 Q 13.798 8.328 13.8 8.332 A 0.014 0.014 0 0 0 13.802 8.335 A 0.013 0.013 0 0 0 13.81 8.339 A 0.019 0.019 0 0 0 13.813 8.34 A 0.047 0.047 0 0 0 13.82 8.339 A 0.076 0.076 0 0 0 13.822 8.339 A 0.05 0.05 0 0 0 13.824 8.338 A 0.03 0.03 0 0 0 13.825 8.338 Z M 13.516 8.255 L 13.514 8.268 A 0.063 0.063 0 0 0 13.51 8.267 A 0.044 0.044 0 0 0 13.506 8.267 A 0.034 0.034 0 0 0 13.504 8.267 Q 13.493 8.267 13.485 8.276 A 0.033 0.033 0 0 0 13.477 8.294 A 0.043 0.043 0 0 0 13.477 8.299 L 13.477 8.35 L 13.462 8.35 L 13.462 8.256 L 13.474 8.256 L 13.476 8.273 A 0.048 0.048 0 0 1 13.482 8.265 A 0.037 0.037 0 0 1 13.489 8.259 A 0.028 0.028 0 0 1 13.505 8.254 A 0.065 0.065 0 0 1 13.511 8.254 A 0.048 0.048 0 0 1 13.516 8.255 Z M 13.548 8.256 L 13.548 8.35 L 13.534 8.35 L 13.534 8.256 L 13.548 8.256 Z M 13.618 8.347 L 13.601 8.347 A 0.033 0.033 0 0 0 13.595 8.348 Q 13.592 8.349 13.589 8.35 A 0.017 0.017 0 0 0 13.586 8.352 A 0.015 0.015 0 0 0 13.581 8.361 A 0.023 0.023 0 0 0 13.58 8.365 Q 13.58 8.373 13.586 8.376 A 0.017 0.017 0 0 0 13.587 8.377 Q 13.591 8.38 13.598 8.381 A 0.058 0.058 0 0 0 13.605 8.381 A 0.096 0.096 0 0 0 13.615 8.38 Q 13.624 8.38 13.63 8.377 A 0.024 0.024 0 0 0 13.632 8.376 A 0.021 0.021 0 0 0 13.637 8.372 A 0.016 0.016 0 0 0 13.64 8.361 Q 13.64 8.356 13.639 8.353 A 0.009 0.009 0 0 0 13.636 8.35 A 0.014 0.014 0 0 0 13.633 8.349 Q 13.629 8.348 13.624 8.348 A 0.091 0.091 0 0 0 13.618 8.347 Z M 13.591 8.298 A 0.015 0.015 0 0 0 13.594 8.301 A 0.018 0.018 0 0 0 13.601 8.305 Q 13.604 8.305 13.607 8.306 A 0.037 0.037 0 0 0 13.609 8.306 A 0.031 0.031 0 0 0 13.617 8.305 Q 13.63 8.301 13.63 8.285 A 0.031 0.031 0 0 0 13.629 8.277 Q 13.626 8.268 13.617 8.265 A 0.031 0.031 0 0 0 13.609 8.264 Q 13.599 8.264 13.594 8.27 A 0.017 0.017 0 0 0 13.589 8.277 Q 13.589 8.279 13.588 8.283 A 0.037 0.037 0 0 0 13.588 8.286 Q 13.588 8.293 13.591 8.298 Z M 13.549 8.233 A 0.015 0.015 0 0 0 13.55 8.23 A 0.016 0.016 0 0 0 13.55 8.229 Q 13.549 8.225 13.547 8.223 A 0.008 0.008 0 0 0 13.541 8.221 A 0.008 0.008 0 0 0 13.535 8.223 Q 13.533 8.225 13.533 8.23 A 0.017 0.017 0 0 0 13.533 8.232 A 0.007 0.007 0 0 0 13.535 8.237 A 0.008 0.008 0 0 0 13.538 8.239 A 0.009 0.009 0 0 0 13.541 8.24 A 0.008 0.008 0 0 0 13.547 8.237 A 0.007 0.007 0 0 0 13.549 8.236 Z M 13.826 8.349 Q 13.824 8.349 13.822 8.35 M 13.64 8.27 Q 13.641 8.271 13.642 8.273 M 13.549 8.233 Q 13.549 8.234 13.549 8.236 M 13.533 8.234 Q 13.533 8.233 13.533 8.232" id="right_labelLayer" stroke="#777777" fill="#777777" style="stroke:#777777;fill:#777777" vector-effect="non-scaling-stroke"/><path d="M 19.55 9.628 L 19.9 9.628 L 19.9 9.746 L 20.27 9.746 L 20.27 9.628 L 20.62 9.628 L 20.62 9.746 L 20.99 9.746 L 20.99 9.628 L 21.34 9.628 L 21.34 9.746 L 21.71 9.746 L 21.71 9.628 L 22.06 9.628 L 22.06 9.746 L 22.43 9.746 L 22.43 9.628 L 22.78 9.628 L 22.78 9.746 L 23.15 9.746 L 23.15 9.628 L 23.5 9.628 L 23.5 9.746 L 23.87 9.746 L 23.87 9.628 L 24.22 9.628 L 24.22 9.746 L 24.59 9.746 L 24.59 9.628 L 24.94 9.628 L 24.94 9.746 L 25.31 9.746 L 25.31 9.628 L 25.66 9.628 L 25.66 9.746 L 26.03 9.746 L 26.03 9.628 L 26.38 9.628 L 26.38 9.746 L 26.75 9.746 L 26.75 9.628 L 27.17 9.628 L 27.17 9.018 L 27.288 9.018 L 27.288 8.648 L 27.17 8.648 L 27.17 8.298 L 27.288 8.298 L 27.288 7.928 L 27.17 7.928 L 27.17 7.578 L 27.288 7.578 L 27.288 7.208 L 27.17 7.208 L 27.17 6.858 L 27.288 6.858 L 27.288 6.488 L 27.17 6.488 L 27.17 6.138 L 27.288 6.138 L 27.288 5.768 L 27.17 5.768 L 27.17 5.418 L 27.288 5.418 L 27.288 5.048 L 27.17 5.048 L 27.17 4.698 L 27.288 4.698 L 27.288 4.328 L 27.17 4.328 L 27.17 3.978 L 27.288 3.978 L 27.288 3.608 L 27.17 3.608 L 27.17 3.258 L 27.288 3.258 L 27.288 2.888 L 27.17 2.888 L 27.17 2.538 L 27.288 2.538 L 27.288 2.168 L 27.17 2.168 L 27.17 1.818 L 27.288 1.818 L 27.288 1.448 L 27.17 1.448 L 27.17 1.098 L 27.288 1.098 L 27.288 0.728 L 27.17 0.728 L 27.17 0.118 L 26.75 0.118 L 26.75 0 L 26.38 0 L 26.38 0.118 L 26.03 0.118 L 26.03 0 L 25.66 0 L 25.66 0.118 L 25.31 0.118 L 25.31 0 L 24.94 0 L 24.94 0.118 L 24.59 0.118 L 24.59 0 L 24.22 0 L 24.22 0.118 L 23.87 0.118 L 23.87 0 L 23.5 0 L 23.5 0.118 L 23.15 0.118 L 23.15 0 L 22.78 0 L 22.78 0.118 L 22.43 0.118 L 22.43 0 L 22.06 0 L 22.06 0.118 L 21.71 0.118 L 21.71 0 L 21.34 0 L 21.34 0.118 L 20.99 0.118 L 20.99 0 L 20.62 0 L 20.62 0.118 L 20.27 0.118 L 20.27 0 L 19.9 0 L 19.9 0.118 L 19.55 0.118 L 19.55 0 L 19.18 0 L 19.18 0.118 L 18.76 0.118 L 18.76 0.728 L 18.642 0.728 L 18.642 1.098 L 18.76 1.098 L 18.76 1.448 L 18.642 1.448 L 18.642 1.818 L 18.76 1.818 L 18.76 2.168 L 18.642 2.168 L 18.642 2.538 L 18.76 2.538 L 18.76 2.888 L 18.642 2.888 L 18.642 3.258 L 18.76 3.258 L 18.76 3.608 L 18.642 3.608 L 18.642 3.978 L 18.76 3.978 L 18.76 4.328 L 18.642 4.328 L 18.642 4.698 L 18.76 4.698 L 18.76 5.048 L 18.642 5.048 L 18.642 5.418 L 18.76 5.418 L 18.76 5.768 L 18.642 5.768 L 18.642 6.138 L 18.76 6.138 L 18.76 6.488 L 18.642 6.488 L 18.642 6.858 L 18.76 6.858 L 18.76 7.208 L 18.642 7.208 L 18.642 7.578 L 18.76 7.578 L 18.76 7.928 L 18.642 7.928 L 18.642 8.298 L 18.76 8.298 L 18.76 8.648 L 18.642 8.648 L 18.642 9.018 L 18.76 9.018 L 18.76 9.628 L 19.18 9.628 L 19.18 9.746 L 19.55 9.746 L 19.55 9.628 Z" id="bottom_outsideCutPath" stroke="#FF0000" stroke-width=".001" style="stroke:#FF0000;stroke-width:.001" vector-effect="non-scaling-stroke"/><path d="M 25.81 5.521 L 25.669 5.521 L 25.669 4.919 A 0.413 0.413 0 0 0 25.665 4.859 Q 25.661 4.828 25.651 4.803 A 0.169 0.169 0 0 0 25.622 4.754 Q 25.581 4.705 25.499 4.699 A 0.325 0.325 0 0 0 25.475 4.698 A 0.361 0.361 0 0 0 25.402 4.705 Q 25.325 4.721 25.282 4.773 Q 25.22 4.848 25.219 5.003 A 0.862 0.862 0 0 0 25.219 5.005 L 25.219 5.521 L 25.079 5.521 L 25.079 4.919 A 0.413 0.413 0 0 0 25.075 4.859 Q 25.07 4.828 25.061 4.803 A 0.169 0.169 0 0 0 25.032 4.754 Q 24.991 4.706 24.91 4.699 A 0.328 0.328 0 0 0 24.884 4.698 Q 24.792 4.698 24.735 4.737 A 0.184 0.184 0 0 0 24.691 4.777 Q 24.63 4.856 24.63 5.036 L 24.63 5.521 L 24.49 5.521 L 24.49 4.596 L 24.604 4.596 L 24.627 4.723 L 24.633 4.723 A 0.275 0.275 0 0 1 24.745 4.617 A 0.333 0.333 0 0 1 24.877 4.58 A 0.402 0.402 0 0 1 24.907 4.579 A 0.459 0.459 0 0 1 25.01 4.59 Q 25.141 4.62 25.191 4.736 L 25.197 4.736 Q 25.239 4.664 25.317 4.621 A 0.355 0.355 0 0 1 25.447 4.582 A 0.442 0.442 0 0 1 25.496 4.579 A 0.487 0.487 0 0 1 25.585 4.587 Q 25.677 4.604 25.731 4.66 A 0.241 0.241 0 0 1 25.783 4.745 Q 25.797 4.782 25.804 4.828 A 0.643 0.643 0 0 1 25.81 4.918 L 25.81 5.521 Z M 20.261 5.402 L 20.25 5.402 L 20.221 5.521 L 20.12 5.521 L 20.12 4.208 L 20.261 4.208 L 20.261 4.527 Q 20.261 4.631 20.254 4.714 A 1.713 1.713 0 0 1 20.254 4.719 L 20.261 4.719 A 0.319 0.319 0 0 1 20.493 4.584 A 0.479 0.479 0 0 1 20.551 4.581 A 0.428 0.428 0 0 1 20.672 4.597 A 0.321 0.321 0 0 1 20.834 4.705 A 0.413 0.413 0 0 1 20.907 4.845 Q 20.925 4.902 20.931 4.971 A 0.9 0.9 0 0 1 20.935 5.058 A 0.822 0.822 0 0 1 20.924 5.196 Q 20.912 5.27 20.885 5.329 A 0.394 0.394 0 0 1 20.833 5.412 A 0.332 0.332 0 0 1 20.598 5.536 A 0.475 0.475 0 0 1 20.551 5.538 A 0.425 0.425 0 0 1 20.444 5.525 A 0.37 0.37 0 0 1 20.386 5.505 Q 20.311 5.472 20.261 5.402 Z M 22.65 5.406 L 22.65 5.513 Q 22.627 5.524 22.583 5.531 A 0.607 0.607 0 0 1 22.543 5.536 Q 22.525 5.538 22.508 5.538 A 0.36 0.36 0 0 1 22.503 5.538 Q 22.289 5.538 22.246 5.358 A 0.441 0.441 0 0 1 22.235 5.255 L 22.235 4.705 L 22.102 4.705 L 22.102 4.637 L 22.235 4.579 L 22.294 4.382 L 22.375 4.382 L 22.375 4.596 L 22.643 4.596 L 22.643 4.705 L 22.375 4.705 L 22.375 5.25 A 0.282 0.282 0 0 0 22.379 5.299 Q 22.388 5.347 22.414 5.378 A 0.13 0.13 0 0 0 22.495 5.42 A 0.187 0.187 0 0 0 22.523 5.423 A 0.46 0.46 0 0 0 22.591 5.418 A 0.428 0.428 0 0 0 22.595 5.417 A 0.758 0.758 0 0 0 22.615 5.414 Q 22.636 5.41 22.65 5.406 Z M 23.261 5.406 L 23.261 5.513 Q 23.238 5.524 23.193 5.531 A 0.607 0.607 0 0 1 23.154 5.536 Q 23.135 5.538 23.118 5.538 A 0.36 0.36 0 0 1 23.114 5.538 Q 22.899 5.538 22.856 5.358 A 0.441 0.441 0 0 1 22.845 5.255 L 22.845 4.705 L 22.713 4.705 L 22.713 4.637 L 22.845 4.579 L 22.904 4.382 L 22.985 4.382 L 22.985 4.596 L 23.254 4.596 L 23.254 4.705 L 22.985 4.705 L 22.985 5.25 A 0.282 0.282 0 0 0 22.989 5.299 Q 22.998 5.347 23.025 5.378 A 0.13 0.13 0 0 0 23.105 5.42 A 0.187 0.187 0 0 0 23.134 5.423 A 0.46 0.46 0 0 0 23.201 5.418 A 0.428 0.428 0 0 0 23.206 5.417 A 0.758 0.758 0 0 0 23.226 5.414 Q 23.247 5.41 23.261 5.406 Z M 21.966 5.199 A 0.724 0.724 0 0 0 21.979 5.058 A 0.822 0.822 0 0 0 21.979 5.036 Q 21.976 4.959 21.96 4.893 A 0.436 0.436 0 0 0 21.864 4.708 A 0.367 0.367 0 0 0 21.694 4.598 A 0.471 0.471 0 0 0 21.556 4.579 A 0.544 0.544 0 0 0 21.458 4.588 A 0.371 0.371 0 0 0 21.242 4.705 A 0.387 0.387 0 0 0 21.194 4.771 Q 21.158 4.835 21.141 4.917 A 0.728 0.728 0 0 0 21.129 5.058 A 0.701 0.701 0 0 0 21.137 5.171 A 0.518 0.518 0 0 0 21.181 5.313 A 0.461 0.461 0 0 0 21.191 5.333 A 0.379 0.379 0 0 0 21.33 5.48 Q 21.426 5.538 21.55 5.538 A 0.544 0.544 0 0 0 21.645 5.53 A 0.374 0.374 0 0 0 21.865 5.411 A 0.391 0.391 0 0 0 21.911 5.347 Q 21.949 5.282 21.966 5.199 Z M 24.231 5.199 A 0.724 0.724 0 0 0 24.244 5.058 A 0.822 0.822 0 0 0 24.244 5.036 Q 24.242 4.959 24.225 4.893 A 0.436 0.436 0 0 0 24.13 4.708 A 0.367 0.367 0 0 0 23.959 4.598 A 0.471 0.471 0 0 0 23.821 4.579 A 0.544 0.544 0 0 0 23.723 4.588 A 0.371 0.371 0 0 0 23.507 4.705 A 0.387 0.387 0 0 0 23.46 4.771 Q 23.423 4.835 23.407 4.917 A 0.728 0.728 0 0 0 23.394 5.058 A 0.701 0.701 0 0 0 23.403 5.171 A 0.518 0.518 0 0 0 23.446 5.313 A 0.461 0.461 0 0 0 23.456 5.333 A 0.379 0.379 0 0 0 23.595 5.48 Q 23.691 5.538 23.815 5.538 A 0.544 0.544 0 0 0 23.91 5.53 A 0.374 0.374 0 0 0 24.13 5.411 A 0.391 0.391 0 0 0 24.177 5.347 Q 24.215 5.282 24.231 5.199 Z M 21.274 5.058 A 0.71 0.71 0 0 0 21.281 5.159 Q 21.296 5.264 21.345 5.328 A 0.23 0.23 0 0 0 21.494 5.416 A 0.348 0.348 0 0 0 21.553 5.421 A 0.326 0.326 0 0 0 21.639 5.41 A 0.227 0.227 0 0 0 21.762 5.328 Q 21.815 5.26 21.829 5.144 A 0.738 0.738 0 0 0 21.834 5.058 Q 21.834 4.945 21.804 4.866 A 0.289 0.289 0 0 0 21.762 4.79 A 0.231 0.231 0 0 0 21.619 4.704 A 0.353 0.353 0 0 0 21.552 4.698 Q 21.414 4.698 21.344 4.789 A 0.29 0.29 0 0 0 21.299 4.876 Q 21.274 4.951 21.274 5.058 Z M 23.539 5.058 A 0.71 0.71 0 0 0 23.546 5.159 Q 23.561 5.264 23.61 5.328 A 0.23 0.23 0 0 0 23.76 5.416 A 0.348 0.348 0 0 0 23.819 5.421 A 0.326 0.326 0 0 0 23.905 5.41 A 0.227 0.227 0 0 0 24.028 5.328 Q 24.081 5.26 24.094 5.144 A 0.738 0.738 0 0 0 24.099 5.058 Q 24.099 4.945 24.07 4.866 A 0.289 0.289 0 0 0 24.028 4.79 A 0.231 0.231 0 0 0 23.884 4.704 A 0.353 0.353 0 0 0 23.817 4.698 Q 23.679 4.698 23.609 4.789 A 0.29 0.29 0 0 0 23.564 4.876 Q 23.539 4.951 23.539 5.058 Z M 20.531 4.698 Q 20.387 4.698 20.324 4.781 A 0.24 0.24 0 0 0 20.289 4.847 Q 20.261 4.927 20.261 5.058 Q 20.261 5.224 20.307 5.309 A 0.211 0.211 0 0 0 20.326 5.337 A 0.203 0.203 0 0 0 20.429 5.407 Q 20.475 5.421 20.534 5.421 A 0.279 0.279 0 0 0 20.614 5.41 A 0.202 0.202 0 0 0 20.727 5.327 A 0.322 0.322 0 0 0 20.766 5.241 Q 20.779 5.2 20.785 5.15 A 0.803 0.803 0 0 0 20.79 5.056 A 0.828 0.828 0 0 0 20.785 4.962 Q 20.773 4.859 20.733 4.796 A 0.232 0.232 0 0 0 20.727 4.787 A 0.204 0.204 0 0 0 20.597 4.705 A 0.324 0.324 0 0 0 20.531 4.698 Z" id="bottom_labelLayer" stroke="#777777" fill="#777777" style="stroke:#777777;fill:#777777" vector-effect="non-scaling-stroke"/></g></svg>